<svg xmlns="http://www.w3.org/2000/svg" viewBox="0 0 1999.69 1000"><g id="Layer_2" data-name="Layer 2">
<style>
.cls-1{
    fill: black;}

@keyframes rotate-move {
    0% {
        transform: translateY(0) ;
    }
    4%{
        transform: skew(-1deg) translateY(12px);
    }
    5%{
         transform: skew(-5deg) translateY(10px);
    }
    8%{
        transform: translateY(0) rotate(5deg);
    }
    15%{
        transform: translateY(0) rotate(0deg);
    }
    100% {
        transform: translateY(0);
    }
}

@keyframes move-up {
    0% {
        transform: translateY(0) ;
    }
    4%{
       transform: skew(4deg) translateY(-10px); 
    }
    5%{
        transform: skew(2deg) translateY(-10px);
    }
    8%{
        transform: translateY(0) rotate(-3deg);
    }
    15%{
        transform: translateY(0) rotate(0deg);
    }
    100% {
        transform: translateY(0);
    }
}

@keyframes ellipsis-move {
    0% {
        transform: translateY(0);
    }
    75% {
        transform: translateY(0);
    }
    80%{
        transform: translateY(-.4rem);
    }
    84%{
        transform: translateY(.1rem);
    }
    85% {
        transform: translateY(0);
    }
}

.rotate {
    animation: rotate-move 22s infinite;
    transform-origin: center center;
}
.rotate-1 {
    animation: rotate-move 24s infinite;
    transform-origin: center center;
}
.rotate-2 {
    animation: move-up 26s infinite ;
    transform-origin: center center;
}
.rotate-3 {
    animation: rotate-move 30s infinite;
    transform-origin: center center;
}
.rotate-4 {
    animation: move-up 32s infinite;
    transform-origin: center center;
}
.tap-1 {
    animation: ellipsis-move 4s infinite;
}
.tap-2 {
    animation: ellipsis-move 4s infinite;
    animation-delay: .4s;
}
.tap-3 {
    animation: ellipsis-move 4s infinite;
    animation-delay: .8s;
}


</style>
<g id="Layer_1-2" data-name="Layer 1"><rect x="137.46" y="231.64" width="16.6" height="302.95" fill="#1d1d1b"/>
<rect class="cls-1 rotate-4" x="341.69" y="280.15" width="16.6" height="302.95" fill="#1d1d1b"/>
<rect class="cls-1 rotate" x="609.3" y="280.15" width="16.6" height="302.95" fill="#1d1d1b"/>
<rect class="cls-1 rotate-2" x="1138.1" y="298.1" width="40" height="364.91" fill="#1d1d1b"/>
<rect class="cls-1 rotate" x="248.68" y="231.64" width="33.21" height="302.95" fill="#1d1d1b"/>
<rect class="cls-1 rotate-2" x="466.84" y="280.15" width="33.21" height="302.95" fill="#1d1d1b"/>
<rect class="cls-1 rotate-3" x="1542.23" y="343.9" width="65.12" height="20" fill="#1d1d1b"/>
<rect class="cls-1 rotate-1" x="1254.76" y="420.07" width="20" height="364.91" fill="#1d1d1b"/>
<rect class="cls-1 rotate-2" x="1479.03" y="153.62" width="40" height="509.39" fill="#1d1d1b"/>
<path class="cls-1 rotate-1" d="M1030.54,688.86a86.43,86.43,0,0,1-86.33-86.34h20a66.34,66.34,0,1,0,132.67,0h20A86.44,86.44,0,0,1,1030.54,688.86Z" fill="#1d1d1b"/>
<path class="cls-1 rotate-1" d="M1731.12,528.72a86.43,86.43,0,0,1-86.34-86.33h20a66.41,66.41,0,0,0,66.34,66.33Z" fill="#1d1d1b"/>
<path class="cls-1 rotate-1" d="M1751.62,538.72v-40A56.4,56.4,0,0,0,1808,442.39h40A96.44,96.44,0,0,1,1751.62,538.72Z" fill="#1d1d1b"/>
<path class="cls-1 rotate" d="M1126.88,583.55h-40a56.34,56.34,0,0,0-112.67,0h-40a96.34,96.34,0,0,1,192.67,0Z" fill="#1d1d1b"/>
<path class="cls-1 rotate-1" d="M1168.1,263.89h-20a66.34,66.34,0,0,0-132.67,0h-20a86.34,86.34,0,0,1,172.67,0Z" fill="#1d1d1b"/>
<path class="cls-1 rotate-2" d="M476.53,247.6h-16.6a55.07,55.07,0,0,0-110.14,0H333.18a71.68,71.68,0,1,1,143.35,0Z" fill="#1d1d1b"/><path d="M138.53,567.14h16.61a55.07,55.07,0,1,0,110.14,0h16.6a71.68,71.68,0,1,1-143.35,0Z" fill="#1d1d1b"/>
<path class="cls-1 rotate-3" d="M1438.47,369.75h-40a56.33,56.33,0,1,0-112.66,0h-40a96.33,96.33,0,1,1,192.66,0Z" fill="#1d1d1b"/>
<path class="cls-1 rotate-4" d="M625.9,247.77H592.69a46.77,46.77,0,1,0-93.53,0H466a80,80,0,0,1,160,0Z" fill="#1d1d1b"/>
<path class="cls-1 rotate-3" d="M1827.45,247.78h-40a56.34,56.34,0,0,0-112.67,0h-40a96.34,96.34,0,0,1,192.67,0Z" fill="#1d1d1b"/>
<path class="cls-1 rotate-3" d="M1848,416.56h-40a56.4,56.4,0,0,0-56.34-56.33v-40A96.44,96.44,0,0,1,1848,416.56Z" fill="#1d1d1b"/>
<path class="cls-1 rotate" d="M1731.12,350.23a86.44,86.44,0,0,1-86.34-86.34h20a66.42,66.42,0,0,0,66.34,66.34Z" fill="#1d1d1b"/>
<rect width="1999.69" height="1400" fill="none"/>
<circle class="cls-1 tap-1" cx="712.8" cy="517.99" r="16.6" fill="#1d1d1b"/>
<circle class="cls-1 tap-2" cx="764.69" cy="517.99" r="16.6" fill="#1d1d1b"/>
<circle class="cls-1 tap-3" cx="817.95" cy="517.99" r="16.6" fill="#1d1d1b"/>
</g>
</g>
</svg>