<svg xmlns="http://www.w3.org/2000/svg" viewBox="0 0 435.21 631.24"><defs><style>.cls-1{fill:#1d1d1b;}</style></defs><g id="Layer_2" data-name="Layer 2"><g id="Layer_1-2" data-name="Layer 1"><path class="cls-1" d="M20.14,6V8.94H13.27V27H39.55V8.94H32.68V6H52.82V8.94H46V49.09h6.87V52H32.68V49.09h6.87V30H13.27V49.09h6.87V52H0V49.09H6.87V8.94H0V6Z"/><path class="cls-1" d="M72.39,21.34A15.68,15.68,0,1,1,56.65,37,15.67,15.67,0,0,1,72.39,21.34Zm0,28.75c4.87,0,9.27-5.47,9.27-13.08s-4.4-13.07-9.27-13.07S63.12,29.55,63.12,37,67.52,50.09,72.39,50.09Z"/><path class="cls-1" d="M93,41c2.6,6.07,6.47,8.6,10.07,8.6,2.8,0,5.14-1.67,5.14-4.73,0-7.21-14.54-4.94-14.54-14.74,0-5.34,4.6-8.81,9.4-8.81a9.2,9.2,0,0,1,6,2.34l3.34-2.34V32.48c-2.8-4.74-6-8.2-9.47-8.2a3.93,3.93,0,0,0-4.27,4.06c0,6.74,14.8,4.87,14.8,14.81,0,5.4-5,9.54-11.14,9.54-3.86,0-7.53-1.53-9.33-3.4Z"/><path class="cls-1" d="M116.57,25.21l11.74-4.53V25h1.27c2.4-1.87,5.53-3.61,9-3.61,7.81,0,13.07,6.07,13.07,14.68a16.62,16.62,0,0,1-16.27,16.67,18.09,18.09,0,0,1-7.07-1.27V68h6.8V70.7H117.64V68h4.8V28.94Zm18.61,24.68c5.34,0,10.14-3.6,10.14-12.21,0-7.8-4.47-12.4-11.14-12.4-2.67,0-5.07,1.33-5.87,2.73V46.42C129.38,48.55,132,49.89,135.18,49.89Z"/><path class="cls-1" d="M160.41,28.94l-5.87-3.73,11.74-4.53V49.35h4.8V52H155.61V49.35h4.8ZM158.68,9a4.07,4.07,0,1,1,4.06,4A4,4,0,0,1,158.68,9Z"/><path class="cls-1" d="M184.1,15.61v7.27h11.54l-2,3.33H184.1V42c0,4.47,2.53,6.27,5.6,6.27a9.3,9.3,0,0,0,6.81-2.93c-1.61,4.86-5.27,7.4-9.88,7.4-4.4,0-8.13-2.8-8.13-8.21l.26-17.34L173,25Z"/><path class="cls-1" d="M206.39,25.68v6.14h-7.27c2.33-5.74,9-10.48,14.94-10.48,3.67,0,6.74,2.6,6.74,7.54V44.29c0,2.6,1.26,3.73,3.13,3.73a4.39,4.39,0,0,0,3.4-1.53,6.21,6.21,0,0,1-6.4,6.07,5.51,5.51,0,0,1-5.54-4.07h-1.2c-1.73,1.6-4.6,4-8.27,4a6.18,6.18,0,0,1-6.34-6.2c0-4.34,4.07-6.81,8.14-8.41l7.61-3v-4C215.33,27.35,213.46,23.68,206.39,25.68Zm5.13,12.94c-4,1.66-6.13,3.07-6.13,6.13,0,2.34,1.8,3.6,4.2,3.6a8.17,8.17,0,0,0,5.74-2.53V37Z"/><path class="cls-1" d="M225.94,4.53,238.35,0V25h1.27c2.4-1.87,5.53-3.61,9-3.61,7.81,0,13.07,6.07,13.07,14.68,0,10.07-8.27,16.67-17.6,16.67-3.87,0-8.88-1.13-11.61-2.87V7.6Zm12.41,41.89c1.07,2.13,3.67,3.47,6.87,3.47,5.34,0,10.14-3.6,10.14-12.21,0-7.8-4.47-12.4-11.14-12.4-2.67,0-5.07,1.33-5.87,2.73Z"/><path class="cls-1" d="M270.12,7.6l-6.54-3.07L276,0V49.35h4.8V52H265.32V49.35h4.8Z"/><path class="cls-1" d="M298.47,52.69c-7.93,0-13.94-6.47-13.94-15.34,0-8.34,6.47-16,14.34-16,7.34,0,11.74,5.74,11.74,12.54H289.27a7.32,7.32,0,0,0-.07,1.27c0,7.34,5.2,12.27,11.34,12.27a11.09,11.09,0,0,0,9.67-4.67C309.08,49.42,304.2,52.69,298.47,52.69Zm-8.8-21.28h14.8c0-4.13-2.67-6.8-6.6-6.8C294.2,24.61,290.87,27,289.67,31.41Z"/><path class="cls-1" d="M23.94,85.41a19.82,19.82,0,0,1,11.47,3.47l4.47-3.47v15c-3.94-6.27-8.61-11.81-16.6-11.81C15,88.61,7.14,96,7.14,107.22c0,13.21,9.2,20.48,18.94,20.48a20,20,0,0,0,15.13-6.54c-2.26,6.27-9.07,11.61-17.93,11.61C11.4,132.77.8,124,.8,110.16.8,95.28,12.6,85.41,23.94,85.41Z"/><path class="cls-1" d="M43.91,105.29l11.73-4.54v5.87H57c3.07-2.8,5.54-5.2,8.41-5.2a3.6,3.6,0,0,1,3.8,3.6,4.7,4.7,0,0,1-3.14,4.13L60.91,106,55.64,110v19.47h6.81v2.67H45v-2.67h4.81V109Z"/><path class="cls-1" d="M85.74,132.77c-7.94,0-13.94-6.47-13.94-15.34,0-8.34,6.47-16,14.34-16,7.34,0,11.74,5.74,11.74,12.54H76.53a8.52,8.52,0,0,0-.06,1.27c0,7.33,5.2,12.27,11.34,12.27a11.09,11.09,0,0,0,9.67-4.67C96.34,129.5,91.47,132.77,85.74,132.77Zm-8.8-21.28h14.8c0-4.14-2.67-6.8-6.6-6.8C81.47,104.69,78.14,107.09,76.94,111.49Z"/><path class="cls-1" d="M109.1,105.76v6.13h-7.27c2.33-5.74,9-10.47,14.94-10.47,3.67,0,6.74,2.6,6.74,7.54v15.4c0,2.6,1.26,3.74,3.13,3.74a4.37,4.37,0,0,0,3.4-1.54,6.2,6.2,0,0,1-6.4,6.07,5.5,5.5,0,0,1-5.54-4.07h-1.2c-1.73,1.61-4.6,4-8.27,4a6.17,6.17,0,0,1-6.33-6.21c0-4.33,4.06-6.8,8.13-8.4l7.6-3v-4C118,107.42,116.17,103.75,109.1,105.76Zm5.13,12.93c-4,1.67-6.13,3.07-6.13,6.14,0,2.33,1.8,3.6,4.2,3.6A8.12,8.12,0,0,0,118,125.9v-8.81Z"/><path class="cls-1" d="M141.6,95.68V103h11.53l-2,3.34H141.6V122c0,4.47,2.53,6.27,5.6,6.27a9.25,9.25,0,0,0,6.8-2.94c-1.6,4.87-5.27,7.41-9.87,7.41-4.4,0-8.14-2.81-8.14-8.21l.27-17.34-5.74-2.2Z"/><path class="cls-1" d="M161.22,109l-5.87-3.73,11.73-4.54v28.68h4.81v2.67H156.41v-2.67h4.81Zm-1.74-19.94a4.07,4.07,0,1,1,4.07,4A4,4,0,0,1,159.48,89.08Z"/><path class="cls-1" d="M194.18,104.75v-2.66H206v2.66h-3.07L190,134.1,176.9,104.75h-3.07v-2.66h14.88v2.66h-5.34l8,19.75,8.34-19.75Z"/><path class="cls-1" d="M221.6,132.77c-7.93,0-13.94-6.47-13.94-15.34,0-8.34,6.47-16,14.34-16,7.34,0,11.74,5.74,11.74,12.54H212.4a7.32,7.32,0,0,0-.07,1.27c0,7.33,5.2,12.27,11.34,12.27a11.08,11.08,0,0,0,9.67-4.67C232.21,129.5,227.33,132.77,221.6,132.77Zm-8.8-21.28h14.8c0-4.14-2.67-6.8-6.6-6.8C217.33,104.69,214,107.09,212.8,111.49Z"/><path class="cls-1" d="M23.94,165.49A19.82,19.82,0,0,1,35.41,169l4.47-3.47v15c-3.94-6.27-8.61-11.81-16.6-11.81C15,168.69,7.14,176,7.14,187.3c0,13.21,9.2,20.48,18.94,20.48a20,20,0,0,0,15.13-6.54c-2.26,6.27-9.07,11.61-17.93,11.61C11.4,212.85.8,204.11.8,190.24.8,175.36,12.6,165.49,23.94,165.49Z"/><path class="cls-1" d="M61.18,181.5a15.68,15.68,0,1,1-15.74,15.67A15.67,15.67,0,0,1,61.18,181.5Zm0,28.74c4.87,0,9.27-5.46,9.27-13.07s-4.4-13.07-9.27-13.07-9.27,5.6-9.27,13.07S56.31,210.24,61.18,210.24Z"/><path class="cls-1" d="M85.34,167.76l-6.53-3.07,12.4-4.53v49.35H96v2.67H80.54v-2.67h4.8Z"/><path class="cls-1" d="M103.76,167.76l-6.54-3.07,12.41-4.53v49.35h4.8v2.67H99v-2.67h4.8Z"/><path class="cls-1" d="M125.17,185.83V192H117.9c2.34-5.74,9-10.47,14.94-10.47,3.67,0,6.74,2.6,6.74,7.54v15.4c0,2.6,1.27,3.74,3.14,3.74a4.4,4.4,0,0,0,3.4-1.54,6.21,6.21,0,0,1-6.41,6.07,5.48,5.48,0,0,1-5.53-4.07H133c-1.74,1.6-4.61,4-8.27,4a6.17,6.17,0,0,1-6.34-6.21c0-4.33,4.07-6.8,8.14-8.4l7.6-3v-4C134.11,187.5,132.25,183.83,125.17,185.83Zm5.14,12.94c-4,1.67-6.13,3.07-6.13,6.14,0,2.33,1.79,3.6,4.19,3.6a8.17,8.17,0,0,0,5.74-2.53v-8.81Z"/><path class="cls-1" d="M144.73,164.69l12.4-4.53V185.1h1.27c2.4-1.87,5.54-3.6,9-3.6,7.8,0,13.07,6.07,13.07,14.67,0,10.07-8.27,16.68-17.61,16.68-3.87,0-8.87-1.14-11.6-2.87V167.76Zm12.4,41.89c1.07,2.13,3.67,3.46,6.87,3.46,5.34,0,10.14-3.6,10.14-12.2,0-7.81-4.47-12.41-11.14-12.41-2.66,0-5.06,1.34-5.87,2.74Z"/><path class="cls-1" d="M201.31,181.5a15.68,15.68,0,1,1-15.74,15.67A15.67,15.67,0,0,1,201.31,181.5Zm0,28.74c4.87,0,9.27-5.46,9.27-13.07s-4.4-13.07-9.27-13.07S192,189.7,192,197.17,196.44,210.24,201.31,210.24Z"/><path class="cls-1" d="M219.94,185.37l11.73-4.54v5.87h1.4c3.07-2.8,5.54-5.2,8.41-5.2a3.59,3.59,0,0,1,3.8,3.6,4.68,4.68,0,0,1-3.14,4.13L237,186.1,231.67,190v19.48h6.81v2.67H221v-2.67h4.81V189.1Z"/><path class="cls-1" d="M254.84,185.83V192h-7.28c2.34-5.74,9-10.47,14.94-10.47,3.67,0,6.74,2.6,6.74,7.54v15.4c0,2.6,1.27,3.74,3.14,3.74a4.4,4.4,0,0,0,3.4-1.54,6.21,6.21,0,0,1-6.41,6.07,5.48,5.48,0,0,1-5.53-4.07h-1.2c-1.74,1.6-4.61,4-8.27,4a6.17,6.17,0,0,1-6.34-6.21c0-4.33,4.07-6.8,8.14-8.4l7.6-3v-4C263.77,187.5,261.91,183.83,254.84,185.83ZM260,198.77c-4,1.67-6.13,3.07-6.13,6.14,0,2.33,1.79,3.6,4.19,3.6a8.17,8.17,0,0,0,5.74-2.53v-8.81Z"/><path class="cls-1" d="M287.33,175.76V183h11.54l-2,3.34h-9.54v15.74c0,4.47,2.53,6.27,5.6,6.27a9.28,9.28,0,0,0,6.81-2.94c-1.61,4.87-5.27,7.41-9.88,7.41-4.4,0-8.13-2.81-8.13-8.21L282,187.3l-5.73-2.2Z"/><path class="cls-1" d="M307,189.1l-5.87-3.73,11.74-4.54v28.68h4.8v2.67H302.15v-2.67H307Zm-1.74-19.94a4.08,4.08,0,1,1,4.07,4A4,4,0,0,1,305.21,169.16Z"/><path class="cls-1" d="M339.91,184.83v-2.66h11.8v2.66h-3.07L335.7,214.18l-13.07-29.35h-3.07v-2.66h14.88v2.66H329.1l8,19.75,8.34-19.75Z"/><path class="cls-1" d="M367.34,212.85c-7.94,0-13.95-6.47-13.95-15.35,0-8.33,6.48-16,14.35-16,7.33,0,11.73,5.74,11.73,12.54H358.13a8.52,8.52,0,0,0-.06,1.27c0,7.33,5.2,12.27,11.33,12.27a11.1,11.1,0,0,0,9.68-4.67C377.94,209.58,373.07,212.85,367.34,212.85Zm-8.81-21.28h14.81c0-4.14-2.67-6.8-6.6-6.8C363.07,184.77,359.73,187.17,358.53,191.57Z"/><path class="cls-1" d="M23.94,245.57A19.82,19.82,0,0,1,35.41,249l4.47-3.47v15c-3.94-6.27-8.61-11.81-16.6-11.81-8.28,0-16.14,7.34-16.14,18.61,0,13.2,9.2,20.47,18.94,20.47a20.06,20.06,0,0,0,15.13-6.53c-2.26,6.27-9.07,11.6-17.93,11.6C11.4,292.92.8,284.18.8,270.31.8,255.44,12.6,245.57,23.94,245.57Z"/><path class="cls-1" d="M43.91,265.44l11.73-4.53v5.87H57c3.07-2.81,5.54-5.21,8.41-5.21a3.6,3.6,0,0,1,3.8,3.61,4.7,4.7,0,0,1-3.14,4.13l-5.2-3.13-5.27,3.93v19.48h6.81v2.66H45v-2.66h4.81V269.18Z"/><path class="cls-1" d="M76.47,269.18l-5.87-3.74,11.73-4.53v28.68h4.81v2.66H71.66v-2.66h4.81Zm-1.74-19.94a4.07,4.07,0,1,1,4.07,4A4,4,0,0,1,74.73,249.24Z"/><path class="cls-1" d="M100.16,255.84v7.27h11.53l-2,3.33h-9.53v15.74c0,4.47,2.53,6.27,5.6,6.27a9.24,9.24,0,0,0,6.8-2.93c-1.6,4.87-5.27,7.4-9.87,7.4-4.4,0-8.14-2.8-8.14-8.2l.27-17.34-5.74-2.2Z"/><path class="cls-1" d="M119.78,269.18l-5.87-3.74,11.73-4.53v28.68h4.81v2.66H115v-2.66h4.81ZM118,249.24a4.07,4.07,0,1,1,4.07,4A4,4,0,0,1,118,249.24Z"/><path class="cls-1" d="M150.47,264.18c-5.88,0-11,5-11,12.14s4.6,11.53,10.74,11.53a10.71,10.71,0,0,0,8.8-4.53,11,11,0,0,1-11.34,9.6c-7.46,0-13.54-6.07-13.54-14.54a16.72,16.72,0,0,1,16.48-16.81c5,0,7.93,2.27,7.93,5.21a4.22,4.22,0,0,1-4.39,3.93Z"/><path class="cls-1" d="M170.16,265.91v6.14h-7.28c2.34-5.74,9-10.48,14.94-10.48,3.68,0,6.74,2.61,6.74,7.54v15.41c0,2.6,1.27,3.73,3.14,3.73a4.39,4.39,0,0,0,3.4-1.53,6.21,6.21,0,0,1-6.41,6.07,5.49,5.49,0,0,1-5.53-4.07H178c-1.74,1.6-4.61,4-8.27,4a6.17,6.17,0,0,1-6.34-6.2c0-4.34,4.07-6.8,8.14-8.4l7.61-3v-4C179.1,267.58,177.23,263.91,170.16,265.91Zm5.13,12.94c-4,1.67-6.13,3.07-6.13,6.14,0,2.33,1.79,3.6,4.19,3.6a8.18,8.18,0,0,0,5.75-2.54v-8.8Z"/><path class="cls-1" d="M197.31,247.84l-6.53-3.07,12.41-4.54v49.36H208v2.66H192.51v-2.66h4.8Z"/><path class="cls-1" d="M47.28,348.05c0,14.68-12.87,24.28-29.21,24.28H0V369.4H6.87V329.25H0v-2.94H17.41C34.68,326.31,47.28,334.31,47.28,348.05Zm-34-18.8V369.4H17c14.35,0,23.08-8.54,23.08-21.28,0-12-8.81-18.87-23.21-18.87Z"/><path class="cls-1" d="M56.92,349.25l-5.87-3.73L62.78,341v28.67h4.81v2.67H52.11v-2.67h4.81Zm-1.74-19.94a4.07,4.07,0,1,1,4.07,4A4,4,0,0,1,55.18,329.31Z"/><path class="cls-1" d="M71.67,361.33c2.6,6.06,6.47,8.6,10.07,8.6,2.8,0,5.13-1.67,5.13-4.73,0-7.21-14.53-4.94-14.53-14.74,0-5.34,4.6-8.81,9.4-8.81a9.2,9.2,0,0,1,6,2.34l3.34-2.34v11.14c-2.81-4.74-6-8.2-9.47-8.2a3.93,3.93,0,0,0-4.27,4.06c0,6.74,14.8,4.87,14.8,14.81,0,5.4-5,9.54-11.14,9.54-3.86,0-7.53-1.53-9.33-3.4Z"/><path class="cls-1" d="M113.56,344.25c-5.87,0-11,5-11,12.14s4.6,11.54,10.74,11.54a10.75,10.75,0,0,0,8.8-4.53,11,11,0,0,1-11.34,9.6c-7.46,0-13.54-6.07-13.54-14.54a16.72,16.72,0,0,1,16.48-16.81c5,0,7.93,2.27,7.93,5.2a4.22,4.22,0,0,1-4.39,3.94Z"/><path class="cls-1" d="M148.93,369.46h-1.54c-2.4,1.87-5.27,3.54-8.54,3.54-5.66,0-8.8-4-8.8-9.81V345.32h-5.2v-2.67l11.07-.73v19.61c0,4.93,3,7.53,7.14,7.53,2.66,0,5.07-1.33,5.87-2.73v-21h-5.2v-2.67l11.07-.73v24.74l5.86,3.07-11.73,3.87Z"/><path class="cls-1" d="M161.76,345.52,173.49,341v5.86h1.4c3.07-2.8,5.54-5.2,8.41-5.2a3.6,3.6,0,0,1,3.8,3.6,4.72,4.72,0,0,1-3.14,4.14l-5.2-3.14-5.27,3.94v19.47h6.81v2.67H162.82v-2.67h4.81V349.25Z"/><path class="cls-1" d="M190.38,361.33c2.6,6.06,6.47,8.6,10.07,8.6,2.8,0,5.14-1.67,5.14-4.73,0-7.21-14.54-4.94-14.54-14.74,0-5.34,4.6-8.81,9.4-8.81a9.2,9.2,0,0,1,6,2.34l3.34-2.34v11.14c-2.8-4.74-6-8.2-9.47-8.2a3.93,3.93,0,0,0-4.27,4.06c0,6.74,14.8,4.87,14.8,14.81,0,5.4-5,9.54-11.14,9.54-3.86,0-7.53-1.53-9.33-3.4Z"/><path class="cls-1" d="M220.28,349.25l-5.88-3.73L226.14,341v28.67H231v2.67H215.47v-2.67h4.81Zm-1.74-19.94a4.07,4.07,0,1,1,4.06,4A4,4,0,0,1,218.54,329.31Z"/><path class="cls-1" d="M253.23,345v-2.67H265V345H262L249,374.33,236,345h-3.07v-2.67h14.87V345h-5.33l8,19.74L258.77,345Z"/><path class="cls-1" d="M280.66,373c-7.93,0-13.94-6.47-13.94-15.34,0-8.34,6.48-16,14.35-16,7.33,0,11.73,5.74,11.73,12.54H271.46a7.32,7.32,0,0,0-.07,1.27c0,7.34,5.21,12.27,11.34,12.27a11.08,11.08,0,0,0,9.67-4.67C291.27,369.73,286.4,373,280.66,373Zm-8.8-21.28h14.8c0-4.13-2.66-6.8-6.59-6.8C276.39,344.92,273.06,347.32,271.86,351.72Z"/><path class="cls-1" d="M23.94,405.72a19.82,19.82,0,0,1,11.47,3.47l4.47-3.47v15c-3.94-6.27-8.61-11.81-16.6-11.81-8.28,0-16.14,7.34-16.14,18.61,0,13.21,9.2,20.48,18.94,20.48a20,20,0,0,0,15.13-6.54c-2.26,6.27-9.07,11.61-17.93,11.61C11.4,453.08.8,444.34.8,430.47.8,415.59,12.6,405.72,23.94,405.72Z"/><path class="cls-1" d="M61.18,421.73A15.68,15.68,0,1,1,45.44,437.4,15.67,15.67,0,0,1,61.18,421.73Zm0,28.74c4.87,0,9.27-5.46,9.27-13.07s-4.4-13.07-9.27-13.07-9.27,5.6-9.27,13.07S56.31,450.47,61.18,450.47Z"/><path class="cls-1" d="M79.81,425.6l11.73-4.54v5.74h1.54c2.34-2.27,5.4-5.07,9.87-5.07,5.47,0,8,4,8,9.8v18.21h4.8v2.67H100.28v-2.67h4.8V433.2c0-4.47-2.4-6.8-6.53-6.8-2.74,0-5.27,1.86-7,3.53v19.81h4.81v2.67H80.87v-2.67h4.81V429.33Z"/><path class="cls-1" d="M128.51,416v7.27h11.54l-2,3.34h-9.54v15.74c0,4.47,2.54,6.27,5.6,6.27a9.28,9.28,0,0,0,6.81-2.94c-1.6,4.87-5.27,7.41-9.87,7.41-4.4,0-8.14-2.81-8.14-8.21l.27-17.34-5.74-2.2Z"/><path class="cls-1" d="M157.41,453.08c-7.94,0-13.94-6.47-13.94-15.35,0-8.33,6.47-16,14.34-16,7.33,0,11.73,5.74,11.73,12.54H148.2a8.52,8.52,0,0,0-.06,1.27c0,7.33,5.2,12.27,11.33,12.27a11.1,11.1,0,0,0,9.68-4.67C168,449.81,163.14,453.08,157.41,453.08ZM148.6,431.8h14.81c0-4.14-2.67-6.8-6.6-6.8C153.14,425,149.8,427.4,148.6,431.8Z"/><path class="cls-1" d="M172.23,425.6,184,421.06v5.74h1.53c2.34-2.27,5.41-5.07,9.87-5.07,4.07,0,6.4,2.27,7.67,5.4h1.2c2.34-2.27,6.07-5.4,10.54-5.4,5.47,0,8,4,8,9.8v18.21h4.8v2.67H212.11v-2.67h4.8V433.2c0-4.47-2.4-6.8-6.53-6.8-2.74,0-5.27,1.86-7,3.53v19.81h4.8v2.67H192.7v-2.67h4.8V433.2c0-4.47-2.4-6.8-6.53-6.8-2.74,0-5.27,1.86-7,3.53v19.81h4.8v2.67H173.3v-2.67h4.8V429.33Z"/><path class="cls-1" d="M229.08,425.6l11.74-4.54v4.27h1.27c2.4-1.87,5.53-3.6,9-3.6,7.81,0,13.08,6.07,13.08,14.67a16.64,16.64,0,0,1-16.28,16.68,18.27,18.27,0,0,1-7.07-1.27v16.6h6.8v2.67H230.15v-2.67H235V429.33Zm18.61,24.67c5.34,0,10.14-3.6,10.14-12.2,0-7.81-4.47-12.41-11.14-12.41-2.67,0-5.07,1.34-5.87,2.74v18.41C241.89,448.94,244.49,450.27,247.69,450.27Z"/><path class="cls-1" d="M285,421.73a15.68,15.68,0,1,1-15.74,15.67A15.67,15.67,0,0,1,285,421.73Zm0,28.74c4.87,0,9.27-5.46,9.27-13.07s-4.4-13.07-9.27-13.07-9.27,5.6-9.27,13.07S280.12,450.47,285,450.47Z"/><path class="cls-1" d="M303.62,425.6l11.74-4.54v5.87h1.4c3.07-2.8,5.54-5.2,8.41-5.2a3.6,3.6,0,0,1,3.8,3.6,4.72,4.72,0,0,1-3.14,4.14l-5.2-3.14-5.27,3.93v19.48h6.8v2.67H304.69v-2.67h4.8V429.33Z"/><path class="cls-1" d="M338.52,426.06v6.14h-7.28c2.34-5.74,9-10.47,14.94-10.47,3.67,0,6.74,2.6,6.74,7.54v15.4c0,2.6,1.27,3.74,3.14,3.74a4.4,4.4,0,0,0,3.4-1.54,6.21,6.21,0,0,1-6.41,6.07,5.48,5.48,0,0,1-5.53-4.07h-1.2c-1.74,1.6-4.61,4-8.27,4a6.17,6.17,0,0,1-6.34-6.2c0-4.33,4.07-6.8,8.14-8.4l7.6-3v-4C347.45,427.73,345.59,424.06,338.52,426.06ZM343.65,439c-4,1.67-6.13,3.07-6.13,6.14,0,2.33,1.79,3.6,4.19,3.6a8.17,8.17,0,0,0,5.74-2.53V437.4Z"/><path class="cls-1" d="M360.14,425.6l11.74-4.54v5.87h1.4c3.06-2.8,5.54-5.2,8.4-5.2a3.59,3.59,0,0,1,3.8,3.6,4.71,4.71,0,0,1-3.13,4.14l-5.2-3.14-5.27,3.93v19.48h6.8v2.67H361.2v-2.67H366V429.33Z"/><path class="cls-1" d="M407.64,425.06V422.4h11.81v2.66h-3.07L399.64,466c-1.27,3.07-2.94,5.74-6.54,5.74a4.11,4.11,0,0,1-4.34-4.07,4.34,4.34,0,0,1,1.47-3.2l6.07,2.2,5-12.34-10.93-29.28H387.3V422.4h14.87v2.66h-5.34l7.68,22.41,8.66-22.41Z"/><path class="cls-1" d="M20.14,486.47v2.93H13.27v40.15h6.87v2.93H0v-2.93H6.87V489.4H0v-2.93Z"/><path class="cls-1" d="M23.09,505.67l11.74-4.53v5.73h1.53c2.34-2.26,5.41-5.07,9.87-5.07,5.47,0,8,4,8,9.81v18.21H59v2.66H43.56v-2.66h4.8V513.28c0-4.47-2.4-6.81-6.53-6.81-2.74,0-5.27,1.87-7,3.54v19.81h4.8v2.66H24.16v-2.66H29V509.41Z"/><path class="cls-1" d="M78.8,504.41c-5.87,0-11,5-11,12.14s4.6,11.53,10.73,11.53a10.72,10.72,0,0,0,8.8-4.53A11,11,0,0,1,76,533.15c-7.47,0-13.54-6.07-13.54-14.54A16.72,16.72,0,0,1,78.93,501.8c5,0,7.94,2.27,7.94,5.21a4.23,4.23,0,0,1-4.4,3.93Z"/><path class="cls-1" d="M95.49,488.07,89,485l12.41-4.54v49.36h4.8v2.66H90.69v-2.66h4.8Z"/><path class="cls-1" d="M132.58,529.62H131c-2.4,1.87-5.27,3.53-8.54,3.53-5.66,0-8.8-4-8.8-9.8V505.47h-5.2v-2.66l11.07-.74v19.61c0,4.93,3,7.54,7.14,7.54,2.66,0,5.07-1.34,5.87-2.74v-21h-5.21v-2.66l11.08-.74v24.74l5.86,3.07-11.73,3.87Z"/><path class="cls-1" d="M147.34,521.48c2.6,6.07,6.46,8.6,10.07,8.6,2.8,0,5.13-1.66,5.13-4.73,0-7.2-14.54-4.94-14.54-14.74,0-5.34,4.6-8.81,9.41-8.81a9.2,9.2,0,0,1,6,2.34l3.34-2.34v11.14c-2.81-4.73-6-8.2-9.48-8.2a3.93,3.93,0,0,0-4.26,4.07c0,6.73,14.8,4.87,14.8,14.8,0,5.41-5,9.54-11.14,9.54-3.86,0-7.53-1.53-9.33-3.4Z"/><path class="cls-1" d="M177.23,509.41l-5.87-3.74,11.74-4.53v28.68h4.8v2.66H172.43v-2.66h4.8Zm-1.74-19.94a4.08,4.08,0,1,1,4.07,4A4,4,0,0,1,175.49,489.47Z"/><path class="cls-1" d="M210.19,505.14v-2.67H222v2.67h-3.07L206,534.49l-13.07-29.35h-3.07v-2.67h14.87v2.67h-5.34l8,19.74,8.33-19.74Z"/><path class="cls-1" d="M237.62,533.15c-7.93,0-13.94-6.47-13.94-15.34,0-8.33,6.47-16,14.34-16,7.34,0,11.74,5.74,11.74,12.54H228.42a7.32,7.32,0,0,0-.07,1.27c0,7.34,5.2,12.27,11.34,12.27a11.08,11.08,0,0,0,9.67-4.67C248.23,529.88,243.36,533.15,237.62,533.15Zm-8.8-21.27h14.8c0-4.14-2.67-6.81-6.6-6.81C233.35,505.07,230,507.47,228.82,511.88Z"/><path class="cls-1" d="M20.14,612.56H0v-2.93H6.87V569.48H0v-2.93H18.2c11.08,0,19.15,3.46,19.15,11.8,0,6.54-5.61,10.47-12.74,11.87l20.27,22.34H36.61L17.67,590.82h-4.4v18.81h6.87Zm-6.87-24.47h4.87c7.27,0,12.47-3.07,12.47-9.47s-5.2-9.14-12.47-9.14H13.27Z"/><path class="cls-1" d="M60.11,613.23c-7.93,0-13.94-6.47-13.94-15.34,0-8.34,6.47-16,14.34-16,7.34,0,11.74,5.74,11.74,12.54H50.91a7.32,7.32,0,0,0-.07,1.27C50.84,603,56,608,62.18,608a11.08,11.08,0,0,0,9.67-4.67C70.72,610,65.85,613.23,60.11,613.23ZM51.31,592h14.8c0-4.13-2.66-6.8-6.6-6.8C55.84,585.15,52.51,587.55,51.31,592Z"/><path class="cls-1" d="M74.53,585.75l11.75-4.53v4.27h1.26c2.4-1.87,5.53-3.61,9-3.61,7.81,0,13.08,6.07,13.08,14.68a16.63,16.63,0,0,1-16.28,16.67A18,18,0,0,1,86.28,612v16.61h6.79v2.67H75.6v-2.67h4.81V589.49Zm18.62,24.68c5.33,0,10.13-3.6,10.13-12.21,0-7.8-4.47-12.4-11.14-12.4-2.67,0-5.07,1.33-5.86,2.74V607C87.34,609.1,89.94,610.43,93.15,610.43Z"/><path class="cls-1" d="M112.51,585.75l11.73-4.53v5.87h1.4c3.07-2.8,5.54-5.21,8.41-5.21a3.6,3.6,0,0,1,3.8,3.61,4.7,4.7,0,0,1-3.14,4.13l-5.2-3.13-5.27,3.93V609.9h6.81v2.66H113.57V609.9h4.81V589.49Z"/><path class="cls-1" d="M154.34,613.23c-7.94,0-13.94-6.47-13.94-15.34,0-8.34,6.47-16,14.34-16,7.34,0,11.73,5.74,11.73,12.54H145.13a8.52,8.52,0,0,0-.06,1.27c0,7.34,5.2,12.27,11.34,12.27a11.09,11.09,0,0,0,9.67-4.67C164.94,610,160.07,613.23,154.34,613.23ZM145.53,592h14.81c0-4.13-2.67-6.8-6.6-6.8C150.07,585.15,146.73,587.55,145.53,592Z"/><path class="cls-1" d="M171.1,601.56c2.6,6.07,6.46,8.6,10.06,8.6,2.81,0,5.14-1.66,5.14-4.73,0-7.21-14.54-4.94-14.54-14.74,0-5.34,4.6-8.81,9.4-8.81a9.23,9.23,0,0,1,6,2.34l3.33-2.34V593c-2.8-4.73-6-8.2-9.47-8.2a3.93,3.93,0,0,0-4.26,4.07c0,6.73,14.8,4.86,14.8,14.8,0,5.41-5,9.54-11.14,9.54-3.87,0-7.53-1.53-9.33-3.4Z"/><path class="cls-1" d="M210.59,613.23c-7.93,0-13.94-6.47-13.94-15.34,0-8.34,6.48-16,14.34-16,7.34,0,11.74,5.74,11.74,12.54H201.39a7.32,7.32,0,0,0-.07,1.27c0,7.34,5.2,12.27,11.34,12.27a11.08,11.08,0,0,0,9.67-4.67C221.2,610,216.33,613.23,210.59,613.23ZM201.79,592h14.8c0-4.13-2.66-6.8-6.59-6.8C206.32,585.15,203,587.55,201.79,592Z"/><path class="cls-1" d="M225.42,585.75l11.73-4.53V587h1.54c2.34-2.26,5.4-5.07,9.87-5.07,5.47,0,8,4,8,9.81V609.9h4.8v2.66H245.89V609.9h4.8V593.36c0-4.47-2.4-6.81-6.53-6.81-2.74,0-5.27,1.87-7,3.54V609.9H242v2.66H226.48V609.9h4.81V589.49Z"/><path class="cls-1" d="M274.12,576.15v7.27h11.54l-2,3.33h-9.54v15.74c0,4.47,2.54,6.27,5.6,6.27a9.26,9.26,0,0,0,6.81-2.93c-1.6,4.87-5.27,7.4-9.87,7.4-4.4,0-8.14-2.8-8.14-8.2l.27-17.34-5.74-2.2Z"/><path class="cls-1" d="M296.41,586.22v6.14h-7.27c2.34-5.74,9-10.48,14.94-10.48,3.67,0,6.74,2.6,6.74,7.54v15.41c0,2.6,1.26,3.73,3.13,3.73a4.39,4.39,0,0,0,3.4-1.53,6.21,6.21,0,0,1-6.4,6.07,5.48,5.48,0,0,1-5.53-4.07h-1.2c-1.74,1.6-4.61,4-8.28,4a6.16,6.16,0,0,1-6.33-6.2c0-4.34,4.06-6.81,8.13-8.4l7.61-3v-4C305.35,587.89,303.48,584.22,296.41,586.22Zm5.13,12.94c-4,1.67-6.13,3.07-6.13,6.13,0,2.34,1.8,3.61,4.2,3.61a8.13,8.13,0,0,0,5.74-2.54v-8.8Z"/><path class="cls-1" d="M328.91,576.15v7.27h11.53l-2,3.33h-9.53v15.74c0,4.47,2.53,6.27,5.6,6.27a9.24,9.24,0,0,0,6.8-2.93c-1.6,4.87-5.27,7.4-9.87,7.4-4.4,0-8.14-2.8-8.14-8.2l.27-17.34-5.73-2.2Z"/><path class="cls-1" d="M348.53,589.49l-5.87-3.74,11.73-4.53V609.9h4.81v2.66H343.72V609.9h4.81Zm-1.74-19.94a4.07,4.07,0,1,1,4.07,4A4,4,0,0,1,346.79,569.55Z"/><path class="cls-1" d="M381.49,585.22v-2.67h11.8v2.67h-3.06l-13,29.34-13.07-29.34h-3.07v-2.67H376v2.67h-5.34l8,19.74L387,585.22Z"/><path class="cls-1" d="M408.92,613.23c-7.94,0-13.94-6.47-13.94-15.34,0-8.34,6.47-16,14.34-16,7.34,0,11.73,5.74,11.73,12.54H399.71a8.52,8.52,0,0,0-.06,1.27c0,7.34,5.2,12.27,11.34,12.27a11.09,11.09,0,0,0,9.67-4.67C419.52,610,414.65,613.23,408.92,613.23ZM400.11,592h14.81c0-4.13-2.67-6.8-6.6-6.8C404.65,585.15,401.31,587.55,400.11,592Z"/><path class="cls-1" d="M430.68,613.16a4.41,4.41,0,0,1-4.47-4.4,4.5,4.5,0,1,1,9,0A4.39,4.39,0,0,1,430.68,613.16Z"/></g></g></svg>