<svg xmlns="http://www.w3.org/2000/svg" viewBox="0 0 675.39 247.22"><defs><style>.cls-1{fill:#1d1d1b;}</style></defs><g id="Layer_2" data-name="Layer 2"><g id="Layer_1-2" data-name="Layer 1"><path class="cls-1" d="M368.37,38.78c0,26.17-23,43.31-52.11,43.31H284V76.85h12.25V5.24H284V0h31.05C345.88,0,368.37,14.28,368.37,38.78ZM307.69,5.24V76.85h6.67c25.57,0,41.16-15.23,41.16-37.95,0-21.41-15.71-33.66-41.4-33.66Z"/><path class="cls-1" d="M402.62,83.28c-14.16,0-24.87-11.54-24.87-27.37,0-14.87,11.54-28.55,25.58-28.55,13.09,0,20.94,10.23,20.94,22.37H386.2a13.53,13.53,0,0,0-.12,2.26c0,13.08,9.28,21.89,20.23,21.89,7.13,0,12.73-2.26,17.25-8.33C421.53,77.45,412.85,83.28,402.62,83.28Zm-15.7-37.95h26.4c0-7.38-4.76-12.14-11.77-12.14C395,33.19,389.06,37.47,386.92,45.33Z"/><path class="cls-1" d="M444.25,35.1V46h-13c4.17-10.23,16.06-18.68,26.65-18.68,6.54,0,12,4.64,12,13.44V68.29c0,4.63,2.26,6.66,5.59,6.66a7.79,7.79,0,0,0,6.06-2.74c0,6.43-5.47,10.83-11.42,10.83-5.47,0-8.56-3.21-9.87-7.26h-2.14c-3.09,2.86-8.21,7.14-14.75,7.14-5.71,0-11.31-4.17-11.31-11.06,0-7.74,7.26-12.14,14.52-15l13.56-5.35V44.37C460.19,38.07,456.86,31.53,444.25,35.1Zm9.16,23.07c-7.14,3-10.94,5.48-10.94,11,0,4.16,3.21,6.42,7.49,6.42A14.54,14.54,0,0,0,460.19,71V55.32Z"/><path class="cls-1" d="M482.79,34.26l20.94-8.09V36.64h2.49c5.48-5,9.88-9.28,15-9.28,3.8,0,6.78,2.62,6.78,6.43,0,3.21-2.38,6.06-5.6,7.37l-9.27-5.59-9.4,7V77.33h12.13v4.76H484.69V77.33h8.57V40.92Z"/><path class="cls-1" d="M46.87,180.48v-5.24H82.56v5.24H71.5v19.63h7.85c-7.49,7.85-20.11,12.61-34.86,12.61C20.94,212.72,0,197.37,0,171.56c0-26.18,21.77-43.31,42-43.31a42.51,42.51,0,0,1,22.48,6.19l8.33-6.19V155C65.67,143.72,56.63,134,41.64,134c-16.18,0-28.91,13.57-28.91,34.5,0,23.92,17.49,38.31,35.81,38.31a36.63,36.63,0,0,0,11.78-1.67V180.48Z"/><path class="cls-1" d="M87.19,163.71l20.94-8.09v10.46h2.5c5.47-5,9.87-9.28,15-9.28,3.81,0,6.78,2.62,6.78,6.43,0,3.21-2.38,6.07-5.59,7.37L117.53,165l-9.4,7v34.74h12.13v4.76H89.1v-4.76h8.56v-36.4Z"/><path class="cls-1" d="M161.78,212.72c-14.16,0-24.87-11.54-24.87-27.36,0-14.87,11.54-28.56,25.58-28.56,13.09,0,20.94,10.24,20.94,22.37H145.36a13.53,13.53,0,0,0-.12,2.26c0,13.09,9.28,21.89,20.23,21.89,7.14,0,12.73-2.26,17.25-8.33C180.69,206.89,172,212.72,161.78,212.72Zm-15.7-37.95h26.41c0-7.38-4.76-12.14-11.78-12.14C154.17,162.63,148.22,166.92,146.08,174.77Z"/><path class="cls-1" d="M215.79,212.72c-14.16,0-24.87-11.54-24.87-27.36,0-14.87,11.54-28.56,25.58-28.56,13.09,0,20.94,10.24,20.94,22.37H199.37a13.53,13.53,0,0,0-.12,2.26c0,13.09,9.28,21.89,20.22,21.89,7.14,0,12.73-2.26,17.25-8.33C234.7,206.89,226,212.72,215.79,212.72Zm-15.71-37.95h26.41c0-7.38-4.76-12.14-11.78-12.14C208.17,162.63,202.22,166.92,200.08,174.77Z"/><path class="cls-1" d="M242.19,163.71l20.94-8.09v10.23h2.73c4.17-4,9.64-9,17.61-9,9.76,0,14.28,7.14,14.28,17.49v32.48h8.56v4.76h-27.6v-4.76h8.57v-29.5c0-8-4.29-12.14-11.66-12.14-4.88,0-9.4,3.33-12.49,6.31v35.33h8.56v4.76h-27.6v-4.76h8.57v-36.4Z"/><path class="cls-1" d="M399.89,130.63c18.8,0,31.29,6.43,31.29,19.75,0,9.64-9,17.25-20.34,19,11.3.71,26.41,7.13,26.41,20.34,0,13.56-13.33,23-32.72,23H368.37v-5.24h12.25V135.87H368.37v-5.24ZM392,135.87v32.24h6.78c11.06,0,20.82-5.83,20.82-16.54,0-11.18-8.68-15.7-20.94-15.7Zm11.42,71.61c12.73,0,21.89-5.82,21.89-17.84,0-12.25-11.42-16.54-22.84-16.54H392v34.38Z"/><path class="cls-1" d="M475.07,158A28,28,0,1,1,447,186,27.95,27.95,0,0,1,475.07,158Zm0,51.28c8.68,0,16.54-9.76,16.54-23.32s-7.86-23.32-16.54-23.32-16.54,10-16.54,23.32C458.53,199.51,466.39,209.27,475.07,209.27Z"/><path class="cls-1" d="M527.64,147.76v13h20.59l-3.57,6h-17v28.07c0,8,4.53,11.19,10,11.19,4.52,0,8.33-1.55,12.13-5.24-2.85,8.69-9.4,13.21-17.6,13.21-7.86,0-14.52-5-14.52-14.63l.48-30.94-10.23-3.92Z"/><path class="cls-1" d="M550.36,128l22.13-8.09V167h2.74c4.16-4,9.63-9,17.6-9,9.76,0,14.28,7.14,14.28,17.49V208h8.56v4.76h-27.6V208h8.57v-29.5c0-8-4.28-12.14-11.66-12.14-4.88,0-9.4,3.33-12.49,6.31V208h8.57v4.76h-27.6V208H562V133.49Z"/><path class="cls-1" d="M654.33,163.94v-4.75h21.06v4.75h-5.47L640.06,237c-2.26,5.47-5.24,10.23-11.66,10.23a7.33,7.33,0,0,1-7.74-7.26,7.77,7.77,0,0,1,2.62-5.71l10.83,3.93,8.92-22-19.51-52.23h-5.47v-4.75h26.53v4.75h-9.52l13.68,40,15.47-40Z"/><path class="cls-1" d="M139.59,34.51v9h14.35l-2.49,4.14H139.59V67.27c0,5.55,3.15,7.79,7,7.79A11.54,11.54,0,0,0,155,71.41c-2,6.06-6.55,9.21-12.28,9.21-5.47,0-10.12-3.48-10.12-10.2L133,48.85l-7.14-2.73Z"/><path class="cls-1" d="M155.43,20.74l15.43-5.64V47.94h1.91c2.9-2.82,6.71-6.3,12.27-6.3,6.8,0,10,5,10,12.19V76.47h6v3.32H181.72V76.47h6V55.9c0-5.55-3-8.46-8.13-8.46-3.4,0-6.55,2.33-8.71,4.4V76.47h6v3.32H157.59V76.47h6V24.55Z"/><path class="cls-1" d="M222.53,80.62c-9.87,0-17.33-8.05-17.33-19.08,0-10.36,8-19.9,17.83-19.9,9.12,0,14.6,7.13,14.6,15.59H211.09a8.79,8.79,0,0,0-.09,1.58c0,9.12,6.47,15.26,14.1,15.26,5,0,8.87-1.58,12-5.81C235.72,76.55,229.66,80.62,222.53,80.62ZM211.58,54.16H230c0-5.14-3.31-8.46-8.21-8.46C217.22,45.7,213.08,48.69,211.58,54.16Z"/></g></g></svg>